<?xml version="1.0" standalone="no"?>
<svg xmlns="http://www.w3.org/2000/svg" version="1.1">
<polygon points="354,25 353,26 338,26 337,27 329,27 328,28 320,28 319,29 314,29 313,30 309,30 308,31 304,31 303,32 300,32 299,33 296,33 295,34 291,34 290,35 287,35 286,36 284,36 283,37 281,37 280,38 278,38 277,39 275,39 274,40 272,40 271,41 268,41 267,42 266,42 265,43 263,43 262,44 261,44 260,45 258,45 257,46 256,46 255,47 253,47 252,48 251,48 250,49 249,49 248,50 246,50 245,51 244,51 243,52 242,52 241,53 240,53 239,54 238,54 237,55 236,55 235,56 234,56 233,57 232,57 231,58 230,58 229,59 228,59 227,60 226,60 224,62 223,62 222,63 221,63 220,64 219,64 217,66 216,66 215,67 214,67 212,69 211,69 209,71 208,71 206,73 205,73 203,75 202,75 200,77 199,77 197,79 196,79 192,83 191,83 188,86 187,86 183,90 182,90 176,96 175,96 153,118 153,119 147,125 147,126 143,130 143,131 139,135 139,136 137,138 137,139 134,142 134,143 131,146 131,147 130,148 130,149 127,152 127,153 126,154 126,155 124,157 124,158 123,159 123,160 121,162 121,163 120,164 120,165 119,166 119,167 117,169 117,170 116,171 116,172 115,173 115,174 114,175 114,176 113,177 113,178 112,179 112,180 111,181 111,182 110,183 110,184 109,185 109,186 108,187 108,188 107,189 107,191 106,192 106,193 105,194 105,195 104,196 104,198 103,199 103,200 102,201 102,203 101,204 101,206 100,207 100,209 99,210 99,211 98,212 98,214 97,215 97,217 96,218 96,220 95,221 95,224 94,225 94,228 93,229 93,231 92,232 92,235 91,236 91,239 90,240 90,243 89,244 89,249 88,250 88,255 87,256 87,262 86,263 86,269 85,270 85,279 84,280 84,318 85,319 85,328 86,329 86,336 87,337 87,342 88,343 88,349 89,350 89,354 90,355 90,359 91,360 91,363 92,364 92,367 93,368 93,370 94,371 94,374 95,375 95,378 96,379 96,381 97,382 97,384 98,385 98,387 99,388 99,389 100,390 100,392 101,393 101,395 102,396 102,398 103,399 103,400 104,401 104,402 105,403 105,405 106,406 106,407 107,408 107,410 108,411 108,412 109,413 109,414 110,415 110,416 111,417 111,418 112,419 112,420 113,421 113,422 114,423 114,424 115,425 115,426 116,427 116,428 118,430 118,431 119,432 119,433 120,434 120,435 121,436 121,437 123,439 123,440 125,442 125,443 126,444 126,445 128,447 128,448 130,450 130,451 132,453 132,454 134,456 134,457 137,460 137,461 140,464 140,465 143,468 143,469 149,475 149,476 156,483 156,484 171,499 172,499 179,506 180,506 185,511 186,511 190,515 191,515 194,518 195,518 198,521 199,521 201,523 202,523 204,525 205,525 207,527 208,527 210,529 211,529 213,531 214,531 215,532 216,532 218,534 219,534 220,535 221,535 223,537 224,537 225,538 226,538 227,539 228,539 229,540 230,540 231,541 232,541 233,542 234,542 235,543 236,543 237,544 238,544 239,545 240,545 241,546 242,546 243,547 244,547 245,548 246,548 247,549 249,549 250,550 251,550 252,551 253,551 254,552 255,552 256,553 258,553 259,554 261,554 262,555 263,555 264,556 266,556 267,557 269,557 270,558 271,558 272,559 274,559 275,560 278,560 280,562 280,564 279,565 279,566 278,567 278,568 276,570 276,572 275,573 275,574 274,575 274,576 273,577 273,578 272,579 272,581 271,582 271,583 270,584 270,585 269,586 269,587 268,588 268,590 267,591 267,593 266,594 266,596 265,597 265,598 264,599 264,601 263,602 263,605 262,606 262,607 261,608 261,610 260,611 260,614 259,615 259,618 258,619 258,622 257,623 257,626 256,627 256,630 255,631 255,635 254,636 254,640 253,641 253,645 252,646 252,652 251,653 251,663 250,664 250,685 249,686 249,688 250,689 250,711 251,712 251,722 252,723 252,729 253,730 253,734 254,735 254,739 255,740 255,744 256,745 256,748 257,749 257,752 258,753 258,756 259,757 259,760 260,761 260,764 261,765 261,767 262,768 262,769 263,770 263,773 264,774 264,776 265,777 265,779 266,780 266,781 267,782 267,784 268,785 268,787 269,788 269,789 270,790 270,791 271,792 271,793 272,794 272,796 273,797 273,798 274,799 274,800 275,801 275,802 276,803 276,804 277,805 277,806 278,807 278,808 279,809 279,811 280,812 280,813 281,814 281,815 283,817 283,818 284,819 284,820 285,821 285,822 286,823 286,824 288,826 288,827 289,828 289,829 291,831 291,832 292,833 292,834 294,836 294,837 296,839 296,840 298,842 298,843 300,845 300,846 303,849 303,850 305,852 305,853 309,857 309,858 313,862 313,863 318,868 318,869 328,879 328,880 330,882 331,882 332,883 332,884 333,884 334,885 334,886 335,886 345,896 346,896 350,900 351,900 356,905 357,905 360,908 361,908 364,911 365,911 367,913 368,913 371,916 372,916 374,918 375,918 376,919 377,919 380,922 381,922 382,923 383,923 384,924 385,924 387,926 388,926 389,927 390,927 392,929 393,929 394,930 395,930 396,931 397,931 398,932 399,932 400,933 401,933 402,934 403,934 404,935 405,935 406,936 407,936 408,937 409,937 410,938 411,938 412,939 413,939 414,940 415,940 416,941 418,941 419,942 420,942 421,943 423,943 424,944 425,944 426,945 428,945 429,946 430,946 431,947 433,947 434,948 436,948 437,949 439,949 440,950 442,950 443,951 445,951 446,952 448,952 449,953 451,953 452,954 455,954 456,955 460,955 461,956 463,956 464,957 467,957 468,958 472,958 473,959 477,959 478,960 483,960 484,961 490,961 491,962 498,962 499,963 508,963 509,964 551,964 552,963 561,963 562,962 569,962 570,961 576,961 577,960 582,960 583,959 587,959 588,958 592,958 593,957 596,957 597,956 600,956 601,955 604,955 605,954 608,954 609,953 611,953 612,952 614,952 615,951 617,951 618,950 620,950 621,949 623,949 624,948 626,948 627,947 629,947 630,946 631,946 632,945 634,945 635,944 636,944 637,943 639,943 640,942 641,942 642,941 644,941 645,940 646,940 647,939 648,939 649,938 650,938 651,937 652,937 653,936 654,936 655,935 656,935 657,934 658,934 659,933 660,933 661,932 662,932 663,931 664,931 665,930 666,930 667,929 668,929 670,927 671,927 672,926 673,926 675,924 676,924 677,923 678,923 680,921 681,921 683,919 684,919 685,918 686,918 688,916 689,916 692,913 693,913 695,911 696,911 699,908 700,908 703,905 704,905 708,901 709,901 714,896 715,896 726,885 727,885 729,883 729,882 743,868 743,867 748,862 748,861 751,858 751,857 755,853 755,852 758,849 758,848 760,846 760,845 762,843 762,842 764,840 764,839 766,837 766,836 767,835 767,834 769,832 769,831 771,829 771,828 772,827 772,826 773,825 773,824 775,822 775,821 776,820 776,819 777,818 777,817 778,816 778,815 779,814 779,813 780,812 780,811 781,810 781,809 782,808 782,807 783,806 783,805 784,804 784,803 785,802 785,801 786,800 786,798 787,797 787,796 788,795 788,794 789,793 789,792 790,791 790,789 791,788 791,786 792,785 792,783 793,782 793,781 794,780 794,778 795,777 795,775 796,774 796,772 797,771 797,768 798,767 798,765 799,764 799,761 800,760 800,758 801,757 801,754 802,753 802,750 803,749 803,745 804,744 804,739 805,738 805,733 806,732 806,727 807,726 807,719 808,718 808,707 809,706 809,674 808,673 808,663 807,662 807,655 806,654 806,649 805,648 805,643 804,642 804,637 803,636 803,632 802,631 802,628 801,627 801,624 800,623 800,620 799,619 799,617 798,616 798,613 797,612 797,610 796,609 796,607 795,606 795,604 794,603 794,601 793,600 793,598 792,597 792,596 791,595 791,593 790,592 790,590 789,589 789,588 788,587 788,586 787,585 787,583 786,582 786,581 785,580 785,578 784,577 784,576 783,575 783,574 782,573 782,572 781,571 781,570 780,569 780,568 779,567 779,566 778,565 778,564 777,563 777,562 775,560 775,559 774,558 774,557 773,556 773,555 771,553 771,552 770,551 770,550 768,548 768,547 767,546 767,545 765,543 765,542 763,540 763,539 761,537 761,536 758,533 758,532 756,530 756,529 753,526 753,525 749,521 749,520 744,515 744,514 736,506 736,505 722,491 721,491 714,484 713,484 707,478 706,478 703,475 702,475 698,471 697,471 695,469 694,469 691,466 690,466 689,465 688,465 685,462 684,462 682,460 681,460 680,459 679,459 677,457 676,457 675,456 674,456 672,454 671,454 670,453 669,453 668,452 667,452 666,451 665,451 663,449 662,449 661,448 660,448 659,447 658,447 657,446 656,446 655,445 654,445 653,444 652,444 651,443 650,443 649,442 648,442 647,441 645,441 644,440 643,440 642,439 640,439 639,438 638,438 637,437 636,437 635,436 633,436 632,435 631,435 630,434 628,434 627,433 625,433 624,432 622,432 621,431 619,431 618,430 616,430 615,429 613,429 612,428 611,428 610,427 610,426 611,425 611,424 612,423 612,422 613,421 613,420 614,419 614,418 615,417 615,416 616,415 616,414 617,413 617,412 618,411 618,409 619,408 619,407 620,406 620,404 621,403 621,402 622,401 622,400 623,399 623,397 624,396 624,395 625,394 625,392 626,391 626,389 627,388 627,386 628,385 628,383 629,382 629,380 630,379 630,377 631,376 631,373 632,372 632,369 633,368 633,365 634,364 634,361 635,360 635,357 636,356 636,353 637,352 637,348 638,347 638,341 639,340 639,333 640,332 640,324 641,323 641,310 642,309 642,290 641,289 641,275 640,274 640,266 639,265 639,259 638,258 638,252 637,251 637,247 636,246 636,242 635,241 635,238 634,237 634,234 633,233 633,230 632,229 632,226 631,225 631,223 630,222 630,219 629,218 629,217 628,216 628,214 627,213 627,211 626,210 626,208 625,207 625,205 624,204 624,202 623,201 623,200 622,199 622,198 621,197 621,195 620,194 620,193 619,192 619,190 618,189 618,188 617,187 617,186 616,185 616,184 615,183 615,182 614,181 614,180 613,179 613,178 612,177 612,176 611,175 611,174 610,173 610,172 609,171 609,170 608,169 608,168 607,167 607,166 605,164 605,163 604,162 604,161 602,159 602,158 601,157 601,156 599,154 599,153 597,151 597,150 595,148 595,147 593,145 593,144 591,142 591,141 588,138 588,137 584,133 584,132 581,129 581,128 576,123 576,122 566,112 566,111 557,102 556,102 548,94 547,94 542,89 541,89 536,84 535,84 532,81 531,81 528,78 527,78 525,76 524,76 522,74 521,74 519,72 518,72 516,70 515,70 513,68 512,68 510,66 509,66 508,65 507,65 506,64 505,64 503,62 502,62 501,61 500,61 499,60 498,60 497,59 496,59 495,58 494,58 492,56 491,56 490,55 489,55 488,54 487,54 486,53 484,53 483,52 482,52 481,51 480,51 479,50 478,50 477,49 476,49 475,48 474,48 473,47 471,47 470,46 468,46 467,45 466,45 465,44 463,44 462,43 461,43 460,42 458,42 457,41 455,41 454,40 452,40 451,39 449,39 448,38 446,38 445,37 443,37 442,36 439,36 438,35 435,35 434,34 431,34 430,33 427,33 426,32 422,32 421,31 418,31 417,30 413,30 412,29 406,29 405,28 398,28 397,27 388,27 387,26 373,26 372,25" style="fill:white;stroke:black;stroke-width:1"/>
</svg>